<?xml version="1.0" encoding="UTF-8" standalone="no"?>
<svg
   height="333.78mm"
   viewBox="0.0 0.0 276.78 333.78"
   width="276.78mm"
   version="1.1"
   id="svg6"
   sodipodi:docname="boksi.svg"
   inkscape:version="1.3.2 (091e20e, 2023-11-25, custom)"
   xmlns:inkscape="http://www.inkscape.org/namespaces/inkscape"
   xmlns:sodipodi="http://sodipodi.sourceforge.net/DTD/sodipodi-0.dtd"
   xmlns="http://www.w3.org/2000/svg"
   xmlns:svg="http://www.w3.org/2000/svg"
   xmlns:rdf="http://www.w3.org/1999/02/22-rdf-syntax-ns#"
   xmlns:cc="http://creativecommons.org/ns#"
   xmlns:dc="http://purl.org/dc/elements/1.1/">
  <defs
     id="defs6" />
  <sodipodi:namedview
     id="namedview6"
     pagecolor="#ffffff"
     bordercolor="#000000"
     borderopacity="0.25"
     inkscape:showpageshadow="2"
     inkscape:pageopacity="0.0"
     inkscape:pagecheckerboard="0"
     inkscape:deskcolor="#d1d1d1"
     inkscape:document-units="mm"
     showgrid="false"
     inkscape:zoom="0.64445518"
     inkscape:cx="524.47402"
     inkscape:cy="588.8695"
     inkscape:window-width="1920"
     inkscape:window-height="974"
     inkscape:window-x="-11"
     inkscape:window-y="-11"
     inkscape:window-maximized="1"
     inkscape:current-layer="svg6" />
  <!--
ABox - A simple Box


This box is kept simple on purpose. If you need more features have a look at the UniversalBox.


Created with Boxes.py (https://festi.info/boxes.py)
Creation date: 2024-04-16 21:41:54
Command line (remove spaces between dashes): boxes ABox - -x=148.0 - -y=98.0 - -bottom_edge=F - -burn=0.16
Url: http://www.festi.info/boxes.py/ABox?FingerJoint_angle=90.0&FingerJoint_style=rectangular&FingerJoint_surroundingspaces=2.0&FingerJoint_bottom_lip=0.0&FingerJoint_edge_width=1.0&FingerJoint_extra_length=0.0&FingerJoint_finger=2.0&FingerJoint_play=0.0&FingerJoint_space=2.0&FingerJoint_width=1.0&Lid_handle=none&Lid_style=none&Lid_handle_height=8.0&Lid_height=4.0&Lid_play=0.1&x=148.0&y=98.0&h=100.0&outside=0&outside=1&bottom_edge=F&thickness=3.0&format=svg&tabs=0.0&qr_code=0&debug=0&labels=0&labels=1&reference=100&inner_corners=loop&burn=0.16&language=en&render=2
Url short: http://www.festi.info/boxes.py/ABox?x=148.0&y=98.0&bottom_edge=F&burn=0.16
SettingsUrl: http://www.festi.info/boxes.py/ABox?FingerJoint_angle=90.0&FingerJoint_style=rectangular&FingerJoint_surroundingspaces=2.0&FingerJoint_bottom_lip=0.0&FingerJoint_edge_width=1.0&FingerJoint_extra_length=0.0&FingerJoint_finger=2.0&FingerJoint_play=0.0&FingerJoint_space=2.0&FingerJoint_width=1.0&Lid_handle=none&Lid_style=none&Lid_handle_height=8.0&Lid_height=4.0&Lid_play=0.1&x=148.0&y=98.0&h=100.0&outside=0&outside=1&bottom_edge=F&thickness=3.0&format=svg&tabs=0.0&qr_code=0&debug=0&labels=0&labels=1&reference=100&inner_corners=loop&burn=0.16&language=en&render=2
SettingsUrl short: http://www.festi.info/boxes.py/ABox?x=148.0&y=98.0&bottom_edge=F&burn=0.16
-->
  <title
     id="title1">ABox</title>
  <metadata
     id="metadata1">
    <rdf:RDF>
      <cc:Work>
        <dc:title>ABox</dc:title>
        <dc:date>2024-04-16 21:41:54</dc:date>
        <dc:source>http://www.festi.info/boxes.py/ABox?FingerJoint_angle=90.0&amp;FingerJoint_style=rectangular&amp;FingerJoint_surroundingspaces=2.0&amp;FingerJoint_bottom_lip=0.0&amp;FingerJoint_edge_width=1.0&amp;FingerJoint_extra_length=0.0&amp;FingerJoint_finger=2.0&amp;FingerJoint_play=0.0&amp;FingerJoint_space=2.0&amp;FingerJoint_width=1.0&amp;Lid_handle=none&amp;Lid_style=none&amp;Lid_handle_height=8.0&amp;Lid_height=4.0&amp;Lid_play=0.1&amp;x=148.0&amp;y=98.0&amp;h=100.0&amp;outside=0&amp;outside=1&amp;bottom_edge=F&amp;thickness=3.0&amp;format=svg&amp;tabs=0.0&amp;qr_code=0&amp;debug=0&amp;labels=0&amp;labels=1&amp;reference=100&amp;inner_corners=loop&amp;burn=0.16&amp;language=en&amp;render=2</dc:source>
        <dc:source>http://www.festi.info/boxes.py/ABox?x=148.0&amp;y=98.0&amp;bottom_edge=F&amp;burn=0.16</dc:source>
        <dc:description>A simple Box

This box is kept simple on purpose. If you need more features have a look at the UniversalBox.

Created with Boxes.py (https://festi.info/boxes.py)
Command line: boxes ABox --FingerJoint_angle=90.0 --FingerJoint_style=rectangular --FingerJoint_surroundingspaces=2.0 --FingerJoint_bottom_lip=0.0 --FingerJoint_edge_width=1.0 --FingerJoint_extra_length=0.0 --FingerJoint_finger=2.0 --FingerJoint_play=0.0 --FingerJoint_space=2.0 --FingerJoint_width=1.0 --Lid_handle=none --Lid_style=none --Lid_handle_height=8.0 --Lid_height=4.0 --Lid_play=0.1 --x=148.0 --y=98.0 --h=100.0 --outside=0 --outside=1 --bottom_edge=F --thickness=3.0 --format=svg --tabs=0.0 --qr_code=0 --debug=0 --labels=0 --labels=1 --reference=100 --inner_corners=loop --burn=0.16
Command line short: boxes ABox --x=148.0 --y=98.0 --bottom_edge=F --burn=0.16
Url: http://www.festi.info/boxes.py/ABox?FingerJoint_angle=90.0&amp;FingerJoint_style=rectangular&amp;FingerJoint_surroundingspaces=2.0&amp;FingerJoint_bottom_lip=0.0&amp;FingerJoint_edge_width=1.0&amp;FingerJoint_extra_length=0.0&amp;FingerJoint_finger=2.0&amp;FingerJoint_play=0.0&amp;FingerJoint_space=2.0&amp;FingerJoint_width=1.0&amp;Lid_handle=none&amp;Lid_style=none&amp;Lid_handle_height=8.0&amp;Lid_height=4.0&amp;Lid_play=0.1&amp;x=148.0&amp;y=98.0&amp;h=100.0&amp;outside=0&amp;outside=1&amp;bottom_edge=F&amp;thickness=3.0&amp;format=svg&amp;tabs=0.0&amp;qr_code=0&amp;debug=0&amp;labels=0&amp;labels=1&amp;reference=100&amp;inner_corners=loop&amp;burn=0.16&amp;language=en&amp;render=2
Url short: http://www.festi.info/boxes.py/ABox?x=148.0&amp;y=98.0&amp;bottom_edge=F&amp;burn=0.16
SettingsUrl: http://www.festi.info/boxes.py/ABox?FingerJoint_angle=90.0&amp;FingerJoint_style=rectangular&amp;FingerJoint_surroundingspaces=2.0&amp;FingerJoint_bottom_lip=0.0&amp;FingerJoint_edge_width=1.0&amp;FingerJoint_extra_length=0.0&amp;FingerJoint_finger=2.0&amp;FingerJoint_play=0.0&amp;FingerJoint_space=2.0&amp;FingerJoint_width=1.0&amp;Lid_handle=none&amp;Lid_style=none&amp;Lid_handle_height=8.0&amp;Lid_height=4.0&amp;Lid_play=0.1&amp;x=148.0&amp;y=98.0&amp;h=100.0&amp;outside=0&amp;outside=1&amp;bottom_edge=F&amp;thickness=3.0&amp;format=svg&amp;tabs=0.0&amp;qr_code=0&amp;debug=0&amp;labels=0&amp;labels=1&amp;reference=100&amp;inner_corners=loop&amp;burn=0.16&amp;language=en&amp;render=2
SettingsUrl short: http://www.festi.info/boxes.py/ABox?x=148.0&amp;y=98.0&amp;bottom_edge=F&amp;burn=0.16
</dc:description>
      </cc:Work>
    </rdf:RDF>
  </metadata>
  <g
     id="p-1"
     style="fill:none;stroke-linecap:round;stroke-linejoin:round;stroke-width:0.02;stroke-dasharray:none">
    <path
       d="M 21.800 311.960 H 29.800 C 29.888 311.960 29.960 311.888 29.960 311.800 V 308.960 C 29.960 308.800 29.800 308.960 29.960 308.960 H 35.640 C 35.800 308.960 35.640 308.800 35.640 308.960 V 311.800 C 35.640 311.888 35.712 311.960 35.800 311.960 H 41.800 C 41.888 311.960 41.960 311.888 41.960 311.800 V 308.960 C 41.960 308.800 41.800 308.960 41.960 308.960 H 47.640 C 47.800 308.960 47.640 308.800 47.640 308.960 V 311.800 C 47.640 311.888 47.712 311.960 47.800 311.960 H 53.800 C 53.888 311.960 53.960 311.888 53.960 311.800 V 308.960 C 53.960 308.800 53.800 308.960 53.960 308.960 H 59.640 C 59.800 308.960 59.640 308.800 59.640 308.960 V 311.800 C 59.640 311.888 59.712 311.960 59.800 311.960 H 65.800 C 65.888 311.960 65.960 311.888 65.960 311.800 V 308.960 C 65.960 308.800 65.800 308.960 65.960 308.960 H 71.640 C 71.800 308.960 71.640 308.800 71.640 308.960 V 311.800 C 71.640 311.888 71.712 311.960 71.800 311.960 H 77.800 C 77.888 311.960 77.960 311.888 77.960 311.800 V 308.960 C 77.960 308.800 77.800 308.960 77.960 308.960 H 83.640 C 83.800 308.960 83.640 308.800 83.640 308.960 V 311.800 C 83.640 311.888 83.712 311.960 83.800 311.960 H 89.800 C 89.888 311.960 89.960 311.888 89.960 311.800 V 308.960 C 89.960 308.800 89.800 308.960 89.960 308.960 H 95.640 C 95.800 308.960 95.640 308.800 95.640 308.960 V 311.800 C 95.640 311.888 95.712 311.960 95.800 311.960 H 101.800 C 101.888 311.960 101.960 311.888 101.960 311.800 V 308.960 C 101.960 308.800 101.800 308.960 101.960 308.960 H 107.640 C 107.800 308.960 107.640 308.800 107.640 308.960 V 311.800 C 107.640 311.888 107.712 311.960 107.800 311.960 H 113.800 C 113.888 311.960 113.960 311.888 113.960 311.800 V 308.960 C 113.960 308.800 113.800 308.960 113.960 308.960 H 119.640 C 119.800 308.960 119.640 308.800 119.640 308.960 V 311.800 C 119.640 311.888 119.712 311.960 119.800 311.960 H 125.800 C 125.888 311.960 125.960 311.888 125.960 311.800 V 308.960 C 125.960 308.800 125.800 308.960 125.960 308.960 H 131.640 C 131.800 308.960 131.640 308.800 131.640 308.960 V 311.800 C 131.640 311.888 131.712 311.960 131.800 311.960 H 137.800 C 137.888 311.960 137.960 311.888 137.960 311.800 V 308.960 C 137.960 308.800 137.800 308.960 137.960 308.960 H 143.640 C 143.800 308.960 143.640 308.800 143.640 308.960 V 311.800 C 143.640 311.888 143.712 311.960 143.800 311.960 H 149.800 C 149.888 311.960 149.960 311.888 149.960 311.800 V 308.960 C 149.960 308.800 149.800 308.960 149.960 308.960 H 155.640 C 155.800 308.960 155.640 308.800 155.640 308.960 V 311.800 C 155.640 311.888 155.712 311.960 155.800 311.960 H 163.800 H 166.800 C 166.888 311.960 166.960 311.888 166.960 311.800 V 300.800 C 166.960 300.712 166.888 300.640 166.800 300.640 H 163.960 C 163.800 300.640 163.960 300.800 163.960 300.640 V 294.960 C 163.960 294.800 163.800 294.960 163.960 294.960 H 166.800 C 166.888 294.960 166.960 294.888 166.960 294.800 V 288.800 C 166.960 288.712 166.888 288.640 166.800 288.640 H 163.960 C 163.800 288.640 163.960 288.800 163.960 288.640 V 282.960 C 163.960 282.800 163.800 282.960 163.960 282.960 H 166.800 C 166.888 282.960 166.960 282.888 166.960 282.800 V 276.800 C 166.960 276.712 166.888 276.640 166.800 276.640 H 163.960 C 163.800 276.640 163.960 276.800 163.960 276.640 V 270.960 C 163.960 270.800 163.800 270.960 163.960 270.960 H 166.800 C 166.888 270.960 166.960 270.888 166.960 270.800 V 264.800 C 166.960 264.712 166.888 264.640 166.800 264.640 H 163.960 C 163.800 264.640 163.960 264.800 163.960 264.640 V 258.960 C 163.960 258.800 163.800 258.960 163.960 258.960 H 166.800 C 166.888 258.960 166.960 258.888 166.960 258.800 V 252.800 C 166.960 252.712 166.888 252.640 166.800 252.640 H 163.960 C 163.800 252.640 163.960 252.800 163.960 252.640 V 246.960 C 163.960 246.800 163.800 246.960 163.960 246.960 H 166.800 C 166.888 246.960 166.960 246.888 166.960 246.800 V 240.800 C 166.960 240.712 166.888 240.640 166.800 240.640 H 163.960 C 163.800 240.640 163.960 240.800 163.960 240.640 V 234.960 C 163.960 234.800 163.800 234.960 163.960 234.960 H 166.800 C 166.888 234.960 166.960 234.888 166.960 234.800 V 228.800 C 166.960 228.712 166.888 228.640 166.800 228.640 H 163.960 C 163.800 228.640 163.960 228.800 163.960 228.640 V 222.960 C 163.960 222.800 163.800 222.960 163.960 222.960 H 166.800 C 166.888 222.960 166.960 222.888 166.960 222.800 V 211.800 C 166.960 211.712 166.888 211.640 166.800 211.640 H 163.800 H 21.800 H 18.800 C 18.712 211.640 18.640 211.712 18.640 211.800 V 222.800 C 18.640 222.888 18.712 222.960 18.800 222.960 H 21.640 C 21.800 222.960 21.640 222.800 21.640 222.960 V 228.640 C 21.640 228.800 21.800 228.640 21.640 228.640 H 18.800 C 18.712 228.640 18.640 228.712 18.640 228.800 V 234.800 C 18.640 234.888 18.712 234.960 18.800 234.960 H 21.640 C 21.800 234.960 21.640 234.800 21.640 234.960 V 240.640 C 21.640 240.800 21.800 240.640 21.640 240.640 H 18.800 C 18.712 240.640 18.640 240.712 18.640 240.800 V 246.800 C 18.640 246.888 18.712 246.960 18.800 246.960 H 21.640 C 21.800 246.960 21.640 246.800 21.640 246.960 V 252.640 C 21.640 252.800 21.800 252.640 21.640 252.640 H 18.800 C 18.712 252.640 18.640 252.712 18.640 252.800 V 258.800 C 18.640 258.888 18.712 258.960 18.800 258.960 H 21.640 C 21.800 258.960 21.640 258.800 21.640 258.960 V 264.640 C 21.640 264.800 21.800 264.640 21.640 264.640 H 18.800 C 18.712 264.640 18.640 264.712 18.640 264.800 V 270.800 C 18.640 270.888 18.712 270.960 18.800 270.960 H 21.640 C 21.800 270.960 21.640 270.800 21.640 270.960 V 276.640 C 21.640 276.800 21.800 276.640 21.640 276.640 H 18.800 C 18.712 276.640 18.640 276.712 18.640 276.800 V 282.800 C 18.640 282.888 18.712 282.960 18.800 282.960 H 21.640 C 21.800 282.960 21.640 282.800 21.640 282.960 V 288.640 C 21.640 288.800 21.800 288.640 21.640 288.640 H 18.800 C 18.712 288.640 18.640 288.712 18.640 288.800 V 294.800 C 18.640 294.888 18.712 294.960 18.800 294.960 H 21.640 C 21.800 294.960 21.640 294.800 21.640 294.960 V 300.640 C 21.640 300.800 21.800 300.640 21.640 300.640 H 18.800 C 18.712 300.640 18.640 300.712 18.640 300.800 V 311.800 C 18.640 311.888 18.712 311.960 18.800 311.960 H 21.800 Z"
       stroke="rgb(0,0,0)"
       stroke-width="0.32"
       id="path2"
       style="stroke-width:0.02;stroke-dasharray:none" />
  </g>
  <g
     id="p-2"
     style="fill:none;stroke-linecap:round;stroke-linejoin:round;stroke-width:0.02;stroke-dasharray:none">
    <path
       d="M 21.800 210.140 H 29.800 C 29.888 210.140 29.960 210.068 29.960 209.980 V 207.140 C 29.960 206.980 29.800 207.140 29.960 207.140 H 35.640 C 35.800 207.140 35.640 206.980 35.640 207.140 V 209.980 C 35.640 210.068 35.712 210.140 35.800 210.140 H 41.800 C 41.888 210.140 41.960 210.068 41.960 209.980 V 207.140 C 41.960 206.980 41.800 207.140 41.960 207.140 H 47.640 C 47.800 207.140 47.640 206.980 47.640 207.140 V 209.980 C 47.640 210.068 47.712 210.140 47.800 210.140 H 53.800 C 53.888 210.140 53.960 210.068 53.960 209.980 V 207.140 C 53.960 206.980 53.800 207.140 53.960 207.140 H 59.640 C 59.800 207.140 59.640 206.980 59.640 207.140 V 209.980 C 59.640 210.068 59.712 210.140 59.800 210.140 H 65.800 C 65.888 210.140 65.960 210.068 65.960 209.980 V 207.140 C 65.960 206.980 65.800 207.140 65.960 207.140 H 71.640 C 71.800 207.140 71.640 206.980 71.640 207.140 V 209.980 C 71.640 210.068 71.712 210.140 71.800 210.140 H 77.800 C 77.888 210.140 77.960 210.068 77.960 209.980 V 207.140 C 77.960 206.980 77.800 207.140 77.960 207.140 H 83.640 C 83.800 207.140 83.640 206.980 83.640 207.140 V 209.980 C 83.640 210.068 83.712 210.140 83.800 210.140 H 89.800 C 89.888 210.140 89.960 210.068 89.960 209.980 V 207.140 C 89.960 206.980 89.800 207.140 89.960 207.140 H 95.640 C 95.800 207.140 95.640 206.980 95.640 207.140 V 209.980 C 95.640 210.068 95.712 210.140 95.800 210.140 H 101.800 C 101.888 210.140 101.960 210.068 101.960 209.980 V 207.140 C 101.960 206.980 101.800 207.140 101.960 207.140 H 107.640 C 107.800 207.140 107.640 206.980 107.640 207.140 V 209.980 C 107.640 210.068 107.712 210.140 107.800 210.140 H 113.800 C 113.888 210.140 113.960 210.068 113.960 209.980 V 207.140 C 113.960 206.980 113.800 207.140 113.960 207.140 H 119.640 C 119.800 207.140 119.640 206.980 119.640 207.140 V 209.980 C 119.640 210.068 119.712 210.140 119.800 210.140 H 125.800 C 125.888 210.140 125.960 210.068 125.960 209.980 V 207.140 C 125.960 206.980 125.800 207.140 125.960 207.140 H 131.640 C 131.800 207.140 131.640 206.980 131.640 207.140 V 209.980 C 131.640 210.068 131.712 210.140 131.800 210.140 H 137.800 C 137.888 210.140 137.960 210.068 137.960 209.980 V 207.140 C 137.960 206.980 137.800 207.140 137.960 207.140 H 143.640 C 143.800 207.140 143.640 206.980 143.640 207.140 V 209.980 C 143.640 210.068 143.712 210.140 143.800 210.140 H 149.800 C 149.888 210.140 149.960 210.068 149.960 209.980 V 207.140 C 149.960 206.980 149.800 207.140 149.960 207.140 H 155.640 C 155.800 207.140 155.640 206.980 155.640 207.140 V 209.980 C 155.640 210.068 155.712 210.140 155.800 210.140 H 163.800 H 166.800 C 166.888 210.140 166.960 210.068 166.960 209.980 V 198.980 C 166.960 198.892 166.888 198.820 166.800 198.820 H 163.960 C 163.800 198.820 163.960 198.980 163.960 198.820 V 193.140 C 163.960 192.980 163.800 193.140 163.960 193.140 H 166.800 C 166.888 193.140 166.960 193.068 166.960 192.980 V 186.980 C 166.960 186.892 166.888 186.820 166.800 186.820 H 163.960 C 163.800 186.820 163.960 186.980 163.960 186.820 V 181.140 C 163.960 180.980 163.800 181.140 163.960 181.140 H 166.800 C 166.888 181.140 166.960 181.068 166.960 180.980 V 174.980 C 166.960 174.892 166.888 174.820 166.800 174.820 H 163.960 C 163.800 174.820 163.960 174.980 163.960 174.820 V 169.140 C 163.960 168.980 163.800 169.140 163.960 169.140 H 166.800 C 166.888 169.140 166.960 169.068 166.960 168.980 V 162.980 C 166.960 162.892 166.888 162.820 166.800 162.820 H 163.960 C 163.800 162.820 163.960 162.980 163.960 162.820 V 157.140 C 163.960 156.980 163.800 157.140 163.960 157.140 H 166.800 C 166.888 157.140 166.960 157.068 166.960 156.980 V 150.980 C 166.960 150.892 166.888 150.820 166.800 150.820 H 163.960 C 163.800 150.820 163.960 150.980 163.960 150.820 V 145.140 C 163.960 144.980 163.800 145.140 163.960 145.140 H 166.800 C 166.888 145.140 166.960 145.068 166.960 144.980 V 138.980 C 166.960 138.892 166.888 138.820 166.800 138.820 H 163.960 C 163.800 138.820 163.960 138.980 163.960 138.820 V 133.140 C 163.960 132.980 163.800 133.140 163.960 133.140 H 166.800 C 166.888 133.140 166.960 133.068 166.960 132.980 V 126.980 C 166.960 126.892 166.888 126.820 166.800 126.820 H 163.960 C 163.800 126.820 163.960 126.980 163.960 126.820 V 121.140 C 163.960 120.980 163.800 121.140 163.960 121.140 H 166.800 C 166.888 121.140 166.960 121.068 166.960 120.980 V 109.980 C 166.960 109.892 166.888 109.820 166.800 109.820 H 163.800 H 21.800 H 18.800 C 18.712 109.820 18.640 109.892 18.640 109.980 V 120.980 C 18.640 121.068 18.712 121.140 18.800 121.140 H 21.640 C 21.800 121.140 21.640 120.980 21.640 121.140 V 126.820 C 21.640 126.980 21.800 126.820 21.640 126.820 H 18.800 C 18.712 126.820 18.640 126.892 18.640 126.980 V 132.980 C 18.640 133.068 18.712 133.140 18.800 133.140 H 21.640 C 21.800 133.140 21.640 132.980 21.640 133.140 V 138.820 C 21.640 138.980 21.800 138.820 21.640 138.820 H 18.800 C 18.712 138.820 18.640 138.892 18.640 138.980 V 144.980 C 18.640 145.068 18.712 145.140 18.800 145.140 H 21.640 C 21.800 145.140 21.640 144.980 21.640 145.140 V 150.820 C 21.640 150.980 21.800 150.820 21.640 150.820 H 18.800 C 18.712 150.820 18.640 150.892 18.640 150.980 V 156.980 C 18.640 157.068 18.712 157.140 18.800 157.140 H 21.640 C 21.800 157.140 21.640 156.980 21.640 157.140 V 162.820 C 21.640 162.980 21.800 162.820 21.640 162.820 H 18.800 C 18.712 162.820 18.640 162.892 18.640 162.980 V 168.980 C 18.640 169.068 18.712 169.140 18.800 169.140 H 21.640 C 21.800 169.140 21.640 168.980 21.640 169.140 V 174.820 C 21.640 174.980 21.800 174.820 21.640 174.820 H 18.800 C 18.712 174.820 18.640 174.892 18.640 174.980 V 180.980 C 18.640 181.068 18.712 181.140 18.800 181.140 H 21.640 C 21.800 181.140 21.640 180.980 21.640 181.140 V 186.820 C 21.640 186.980 21.800 186.820 21.640 186.820 H 18.800 C 18.712 186.820 18.640 186.892 18.640 186.980 V 192.980 C 18.640 193.068 18.712 193.140 18.800 193.140 H 21.640 C 21.800 193.140 21.640 192.980 21.640 193.140 V 198.820 C 21.640 198.980 21.800 198.820 21.640 198.820 H 18.800 C 18.712 198.820 18.640 198.892 18.640 198.980 V 209.980 C 18.640 210.068 18.712 210.140 18.800 210.140 H 21.800 Z"
       stroke="rgb(0,0,0)"
       stroke-width="0.32"
       id="path3"
       style="stroke-width:0.02;stroke-dasharray:none" />
  </g>
  <g
     id="p-3"
     style="fill:none;stroke-linecap:round;stroke-linejoin:round;stroke-width:0.02;stroke-dasharray:none">
    <path
       d="M 21.800 105.320 H 29.640 C 29.800 105.320 29.640 105.160 29.640 105.320 V 108.160 C 29.640 108.248 29.712 108.320 29.800 108.320 H 35.800 C 35.888 108.320 35.960 108.248 35.960 108.160 V 105.320 C 35.960 105.160 35.800 105.320 35.960 105.320 H 41.640 C 41.800 105.320 41.640 105.160 41.640 105.320 V 108.160 C 41.640 108.248 41.712 108.320 41.800 108.320 H 47.800 C 47.888 108.320 47.960 108.248 47.960 108.160 V 105.320 C 47.960 105.160 47.800 105.320 47.960 105.320 H 53.640 C 53.800 105.320 53.640 105.160 53.640 105.320 V 108.160 C 53.640 108.248 53.712 108.320 53.800 108.320 H 59.800 C 59.888 108.320 59.960 108.248 59.960 108.160 V 105.320 C 59.960 105.160 59.800 105.320 59.960 105.320 H 65.640 C 65.800 105.320 65.640 105.160 65.640 105.320 V 108.160 C 65.640 108.248 65.712 108.320 65.800 108.320 H 71.800 C 71.888 108.320 71.960 108.248 71.960 108.160 V 105.320 C 71.960 105.160 71.800 105.320 71.960 105.320 H 77.640 C 77.800 105.320 77.640 105.160 77.640 105.320 V 108.160 C 77.640 108.248 77.712 108.320 77.800 108.320 H 83.800 C 83.888 108.320 83.960 108.248 83.960 108.160 V 105.320 C 83.960 105.160 83.800 105.320 83.960 105.320 H 89.640 C 89.800 105.320 89.640 105.160 89.640 105.320 V 108.160 C 89.640 108.248 89.712 108.320 89.800 108.320 H 95.800 C 95.888 108.320 95.960 108.248 95.960 108.160 V 105.320 C 95.960 105.160 95.800 105.320 95.960 105.320 H 101.640 C 101.800 105.320 101.640 105.160 101.640 105.320 V 108.160 C 101.640 108.248 101.712 108.320 101.800 108.320 H 107.800 C 107.888 108.320 107.960 108.248 107.960 108.160 V 105.320 C 107.960 105.160 107.800 105.320 107.960 105.320 H 113.640 C 113.800 105.320 113.640 105.160 113.640 105.320 V 108.160 C 113.640 108.248 113.712 108.320 113.800 108.320 H 119.800 C 119.888 108.320 119.960 108.248 119.960 108.160 V 105.320 C 119.960 105.160 119.800 105.320 119.960 105.320 H 125.640 C 125.800 105.320 125.640 105.160 125.640 105.320 V 108.160 C 125.640 108.248 125.712 108.320 125.800 108.320 H 131.800 C 131.888 108.320 131.960 108.248 131.960 108.160 V 105.320 C 131.960 105.160 131.800 105.320 131.960 105.320 H 137.640 C 137.800 105.320 137.640 105.160 137.640 105.320 V 108.160 C 137.640 108.248 137.712 108.320 137.800 108.320 H 143.800 C 143.888 108.320 143.960 108.248 143.960 108.160 V 105.320 C 143.960 105.160 143.800 105.320 143.960 105.320 H 149.640 C 149.800 105.320 149.640 105.160 149.640 105.320 V 108.160 C 149.640 108.248 149.712 108.320 149.800 108.320 H 155.800 C 155.888 108.320 155.960 108.248 155.960 108.160 V 105.320 C 155.960 105.160 155.800 105.320 155.960 105.320 H 163.800 C 163.888 105.320 163.960 105.248 163.960 105.160 V 98.320 C 163.960 98.160 163.800 98.320 163.960 98.320 H 166.800 C 166.888 98.320 166.960 98.248 166.960 98.160 V 92.160 C 166.960 92.072 166.888 92.000 166.800 92.000 H 163.960 C 163.800 92.000 163.960 92.160 163.960 92.000 V 86.320 C 163.960 86.160 163.800 86.320 163.960 86.320 H 166.800 C 166.888 86.320 166.960 86.248 166.960 86.160 V 80.160 C 166.960 80.072 166.888 80.000 166.800 80.000 H 163.960 C 163.800 80.000 163.960 80.160 163.960 80.000 V 74.320 C 163.960 74.160 163.800 74.320 163.960 74.320 H 166.800 C 166.888 74.320 166.960 74.248 166.960 74.160 V 68.160 C 166.960 68.072 166.888 68.000 166.800 68.000 H 163.960 C 163.800 68.000 163.960 68.160 163.960 68.000 V 62.320 C 163.960 62.160 163.800 62.320 163.960 62.320 H 166.800 C 166.888 62.320 166.960 62.248 166.960 62.160 V 56.160 C 166.960 56.072 166.888 56.000 166.800 56.000 H 163.960 C 163.800 56.000 163.960 56.160 163.960 56.000 V 50.320 C 163.960 50.160 163.800 50.320 163.960 50.320 H 166.800 C 166.888 50.320 166.960 50.248 166.960 50.160 V 44.160 C 166.960 44.072 166.888 44.000 166.800 44.000 H 163.960 C 163.800 44.000 163.960 44.160 163.960 44.000 V 38.320 C 163.960 38.160 163.800 38.320 163.960 38.320 H 166.800 C 166.888 38.320 166.960 38.248 166.960 38.160 V 32.160 C 166.960 32.072 166.888 32.000 166.800 32.000 H 163.960 C 163.800 32.000 163.960 32.160 163.960 32.000 V 26.320 C 163.960 26.160 163.800 26.320 163.960 26.320 H 166.800 C 166.888 26.320 166.960 26.248 166.960 26.160 V 20.160 C 166.960 20.072 166.888 20.000 166.800 20.000 H 163.960 C 163.800 20.000 163.960 20.160 163.960 20.000 V 13.160 C 163.960 13.072 163.888 13.000 163.800 13.000 H 155.960 C 155.800 13.000 155.960 13.160 155.960 13.000 V 10.160 C 155.960 10.072 155.888 10.000 155.800 10.000 H 149.800 C 149.712 10.000 149.640 10.072 149.640 10.160 V 13.000 C 149.640 13.160 149.800 13.000 149.640 13.000 H 143.960 C 143.800 13.000 143.960 13.160 143.960 13.000 V 10.160 C 143.960 10.072 143.888 10.000 143.800 10.000 H 137.800 C 137.712 10.000 137.640 10.072 137.640 10.160 V 13.000 C 137.640 13.160 137.800 13.000 137.640 13.000 H 131.960 C 131.800 13.000 131.960 13.160 131.960 13.000 V 10.160 C 131.960 10.072 131.888 10.000 131.800 10.000 H 125.800 C 125.712 10.000 125.640 10.072 125.640 10.160 V 13.000 C 125.640 13.160 125.800 13.000 125.640 13.000 H 119.960 C 119.800 13.000 119.960 13.160 119.960 13.000 V 10.160 C 119.960 10.072 119.888 10.000 119.800 10.000 H 113.800 C 113.712 10.000 113.640 10.072 113.640 10.160 V 13.000 C 113.640 13.160 113.800 13.000 113.640 13.000 H 107.960 C 107.800 13.000 107.960 13.160 107.960 13.000 V 10.160 C 107.960 10.072 107.888 10.000 107.800 10.000 H 101.800 C 101.712 10.000 101.640 10.072 101.640 10.160 V 13.000 C 101.640 13.160 101.800 13.000 101.640 13.000 H 95.960 C 95.800 13.000 95.960 13.160 95.960 13.000 V 10.160 C 95.960 10.072 95.888 10.000 95.800 10.000 H 89.800 C 89.712 10.000 89.640 10.072 89.640 10.160 V 13.000 C 89.640 13.160 89.800 13.000 89.640 13.000 H 83.960 C 83.800 13.000 83.960 13.160 83.960 13.000 V 10.160 C 83.960 10.072 83.888 10.000 83.800 10.000 H 77.800 C 77.712 10.000 77.640 10.072 77.640 10.160 V 13.000 C 77.640 13.160 77.800 13.000 77.640 13.000 H 71.960 C 71.800 13.000 71.960 13.160 71.960 13.000 V 10.160 C 71.960 10.072 71.888 10.000 71.800 10.000 H 65.800 C 65.712 10.000 65.640 10.072 65.640 10.160 V 13.000 C 65.640 13.160 65.800 13.000 65.640 13.000 H 59.960 C 59.800 13.000 59.960 13.160 59.960 13.000 V 10.160 C 59.960 10.072 59.888 10.000 59.800 10.000 H 53.800 C 53.712 10.000 53.640 10.072 53.640 10.160 V 13.000 C 53.640 13.160 53.800 13.000 53.640 13.000 H 47.960 C 47.800 13.000 47.960 13.160 47.960 13.000 V 10.160 C 47.960 10.072 47.888 10.000 47.800 10.000 H 41.800 C 41.712 10.000 41.640 10.072 41.640 10.160 V 13.000 C 41.640 13.160 41.800 13.000 41.640 13.000 H 35.960 C 35.800 13.000 35.960 13.160 35.960 13.000 V 10.160 C 35.960 10.072 35.888 10.000 35.800 10.000 H 29.800 C 29.712 10.000 29.640 10.072 29.640 10.160 V 13.000 C 29.640 13.160 29.800 13.000 29.640 13.000 H 21.800 C 21.712 13.000 21.640 13.072 21.640 13.160 V 20.000 C 21.640 20.160 21.800 20.000 21.640 20.000 H 18.800 C 18.712 20.000 18.640 20.072 18.640 20.160 V 26.160 C 18.640 26.248 18.712 26.320 18.800 26.320 H 21.640 C 21.800 26.320 21.640 26.160 21.640 26.320 V 32.000 C 21.640 32.160 21.800 32.000 21.640 32.000 H 18.800 C 18.712 32.000 18.640 32.072 18.640 32.160 V 38.160 C 18.640 38.248 18.712 38.320 18.800 38.320 H 21.640 C 21.800 38.320 21.640 38.160 21.640 38.320 V 44.000 C 21.640 44.160 21.800 44.000 21.640 44.000 H 18.800 C 18.712 44.000 18.640 44.072 18.640 44.160 V 50.160 C 18.640 50.248 18.712 50.320 18.800 50.320 H 21.640 C 21.800 50.320 21.640 50.160 21.640 50.320 V 56.000 C 21.640 56.160 21.800 56.000 21.640 56.000 H 18.800 C 18.712 56.000 18.640 56.072 18.640 56.160 V 62.160 C 18.640 62.248 18.712 62.320 18.800 62.320 H 21.640 C 21.800 62.320 21.640 62.160 21.640 62.320 V 68.000 C 21.640 68.160 21.800 68.000 21.640 68.000 H 18.800 C 18.712 68.000 18.640 68.072 18.640 68.160 V 74.160 C 18.640 74.248 18.712 74.320 18.800 74.320 H 21.640 C 21.800 74.320 21.640 74.160 21.640 74.320 V 80.000 C 21.640 80.160 21.800 80.000 21.640 80.000 H 18.800 C 18.712 80.000 18.640 80.072 18.640 80.160 V 86.160 C 18.640 86.248 18.712 86.320 18.800 86.320 H 21.640 C 21.800 86.320 21.640 86.160 21.640 86.320 V 92.000 C 21.640 92.160 21.800 92.000 21.640 92.000 H 18.800 C 18.712 92.000 18.640 92.072 18.640 92.160 V 98.160 C 18.640 98.248 18.712 98.320 18.800 98.320 H 21.640 C 21.800 98.320 21.640 98.160 21.640 98.320 V 105.160 C 21.640 105.248 21.712 105.320 21.800 105.320 Z"
       stroke="rgb(0,0,0)"
       stroke-width="0.32"
       id="path4"
       style="stroke-width:0.02;stroke-dasharray:none" />
  </g>
  <g
     id="p-4"
     style="fill:none;stroke-linecap:round;stroke-linejoin:round;stroke-width:0.02;stroke-dasharray:none">
    <path
       d="M 171.620 311.960 H 178.620 C 178.708 311.960 178.780 311.888 178.780 311.800 V 308.960 C 178.780 308.800 178.620 308.960 178.780 308.960 H 184.460 C 184.620 308.960 184.460 308.800 184.460 308.960 V 311.800 C 184.460 311.888 184.532 311.960 184.620 311.960 H 190.620 C 190.708 311.960 190.780 311.888 190.780 311.800 V 308.960 C 190.780 308.800 190.620 308.960 190.780 308.960 H 196.460 C 196.620 308.960 196.460 308.800 196.460 308.960 V 311.800 C 196.460 311.888 196.532 311.960 196.620 311.960 H 202.620 C 202.708 311.960 202.780 311.888 202.780 311.800 V 308.960 C 202.780 308.800 202.620 308.960 202.780 308.960 H 208.460 C 208.620 308.960 208.460 308.800 208.460 308.960 V 311.800 C 208.460 311.888 208.532 311.960 208.620 311.960 H 214.620 C 214.708 311.960 214.780 311.888 214.780 311.800 V 308.960 C 214.780 308.800 214.620 308.960 214.780 308.960 H 220.460 C 220.620 308.960 220.460 308.800 220.460 308.960 V 311.800 C 220.460 311.888 220.532 311.960 220.620 311.960 H 226.620 C 226.708 311.960 226.780 311.888 226.780 311.800 V 308.960 C 226.780 308.800 226.620 308.960 226.780 308.960 H 232.460 C 232.620 308.960 232.460 308.800 232.460 308.960 V 311.800 C 232.460 311.888 232.532 311.960 232.620 311.960 H 238.620 C 238.708 311.960 238.780 311.888 238.780 311.800 V 308.960 C 238.780 308.800 238.620 308.960 238.780 308.960 H 244.460 C 244.620 308.960 244.460 308.800 244.460 308.960 V 311.800 C 244.460 311.888 244.532 311.960 244.620 311.960 H 250.620 C 250.708 311.960 250.780 311.888 250.780 311.800 V 308.960 C 250.780 308.800 250.620 308.960 250.780 308.960 H 256.460 C 256.620 308.960 256.460 308.800 256.460 308.960 V 311.800 C 256.460 311.888 256.532 311.960 256.620 311.960 H 263.620 C 263.708 311.960 263.780 311.888 263.780 311.800 V 300.960 C 263.780 300.800 263.620 300.960 263.780 300.960 H 266.620 C 266.708 300.960 266.780 300.888 266.780 300.800 V 294.800 C 266.780 294.712 266.708 294.640 266.620 294.640 H 263.780 C 263.620 294.640 263.780 294.800 263.780 294.640 V 288.960 C 263.780 288.800 263.620 288.960 263.780 288.960 H 266.620 C 266.708 288.960 266.780 288.888 266.780 288.800 V 282.800 C 266.780 282.712 266.708 282.640 266.620 282.640 H 263.780 C 263.620 282.640 263.780 282.800 263.780 282.640 V 276.960 C 263.780 276.800 263.620 276.960 263.780 276.960 H 266.620 C 266.708 276.960 266.780 276.888 266.780 276.800 V 270.800 C 266.780 270.712 266.708 270.640 266.620 270.640 H 263.780 C 263.620 270.640 263.780 270.800 263.780 270.640 V 264.960 C 263.780 264.800 263.620 264.960 263.780 264.960 H 266.620 C 266.708 264.960 266.780 264.888 266.780 264.800 V 258.800 C 266.780 258.712 266.708 258.640 266.620 258.640 H 263.780 C 263.620 258.640 263.780 258.800 263.780 258.640 V 252.960 C 263.780 252.800 263.620 252.960 263.780 252.960 H 266.620 C 266.708 252.960 266.780 252.888 266.780 252.800 V 246.800 C 266.780 246.712 266.708 246.640 266.620 246.640 H 263.780 C 263.620 246.640 263.780 246.800 263.780 246.640 V 240.960 C 263.780 240.800 263.620 240.960 263.780 240.960 H 266.620 C 266.708 240.960 266.780 240.888 266.780 240.800 V 234.800 C 266.780 234.712 266.708 234.640 266.620 234.640 H 263.780 C 263.620 234.640 263.780 234.800 263.780 234.640 V 228.960 C 263.780 228.800 263.620 228.960 263.780 228.960 H 266.620 C 266.708 228.960 266.780 228.888 266.780 228.800 V 222.800 C 266.780 222.712 266.708 222.640 266.620 222.640 H 263.780 C 263.620 222.640 263.780 222.800 263.780 222.640 V 211.800 C 263.780 211.712 263.708 211.640 263.620 211.640 H 171.620 C 171.532 211.640 171.460 211.712 171.460 211.800 V 222.640 C 171.460 222.800 171.620 222.640 171.460 222.640 H 168.620 C 168.532 222.640 168.460 222.712 168.460 222.800 V 228.800 C 168.460 228.888 168.532 228.960 168.620 228.960 H 171.460 C 171.620 228.960 171.460 228.800 171.460 228.960 V 234.640 C 171.460 234.800 171.620 234.640 171.460 234.640 H 168.620 C 168.532 234.640 168.460 234.712 168.460 234.800 V 240.800 C 168.460 240.888 168.532 240.960 168.620 240.960 H 171.460 C 171.620 240.960 171.460 240.800 171.460 240.960 V 246.640 C 171.460 246.800 171.620 246.640 171.460 246.640 H 168.620 C 168.532 246.640 168.460 246.712 168.460 246.800 V 252.800 C 168.460 252.888 168.532 252.960 168.620 252.960 H 171.460 C 171.620 252.960 171.460 252.800 171.460 252.960 V 258.640 C 171.460 258.800 171.620 258.640 171.460 258.640 H 168.620 C 168.532 258.640 168.460 258.712 168.460 258.800 V 264.800 C 168.460 264.888 168.532 264.960 168.620 264.960 H 171.460 C 171.620 264.960 171.460 264.800 171.460 264.960 V 270.640 C 171.460 270.800 171.620 270.640 171.460 270.640 H 168.620 C 168.532 270.640 168.460 270.712 168.460 270.800 V 276.800 C 168.460 276.888 168.532 276.960 168.620 276.960 H 171.460 C 171.620 276.960 171.460 276.800 171.460 276.960 V 282.640 C 171.460 282.800 171.620 282.640 171.460 282.640 H 168.620 C 168.532 282.640 168.460 282.712 168.460 282.800 V 288.800 C 168.460 288.888 168.532 288.960 168.620 288.960 H 171.460 C 171.620 288.960 171.460 288.800 171.460 288.960 V 294.640 C 171.460 294.800 171.620 294.640 171.460 294.640 H 168.620 C 168.532 294.640 168.460 294.712 168.460 294.800 V 300.800 C 168.460 300.888 168.532 300.960 168.620 300.960 H 171.460 C 171.620 300.960 171.460 300.800 171.460 300.960 V 311.800 C 171.460 311.888 171.532 311.960 171.620 311.960 Z"
       stroke="rgb(0,0,0)"
       stroke-width="0.32"
       id="path5"
       style="stroke-width:0.02;stroke-dasharray:none" />
  </g>
  <g
     id="p-5"
     style="fill:none;stroke-linecap:round;stroke-linejoin:round;stroke-width:0.02;stroke-dasharray:none"
     inkscape:label="p-5">
    <path
       d="M 171.620 210.140 H 178.620 C 178.708 210.140 178.780 210.068 178.780 209.980 V 207.140 C 178.780 206.980 178.620 207.140 178.780 207.140 H 184.460 C 184.620 207.140 184.460 206.980 184.460 207.140 V 209.980 C 184.460 210.068 184.532 210.140 184.620 210.140 H 190.620 C 190.708 210.140 190.780 210.068 190.780 209.980 V 207.140 C 190.780 206.980 190.620 207.140 190.780 207.140 H 196.460 C 196.620 207.140 196.460 206.980 196.460 207.140 V 209.980 C 196.460 210.068 196.532 210.140 196.620 210.140 H 202.620 C 202.708 210.140 202.780 210.068 202.780 209.980 V 207.140 C 202.780 206.980 202.620 207.140 202.780 207.140 H 208.460 C 208.620 207.140 208.460 206.980 208.460 207.140 V 209.980 C 208.460 210.068 208.532 210.140 208.620 210.140 H 214.620 C 214.708 210.140 214.780 210.068 214.780 209.980 V 207.140 C 214.780 206.980 214.620 207.140 214.780 207.140 H 220.460 C 220.620 207.140 220.460 206.980 220.460 207.140 V 209.980 C 220.460 210.068 220.532 210.140 220.620 210.140 H 226.620 C 226.708 210.140 226.780 210.068 226.780 209.980 V 207.140 C 226.780 206.980 226.620 207.140 226.780 207.140 H 232.460 C 232.620 207.140 232.460 206.980 232.460 207.140 V 209.980 C 232.460 210.068 232.532 210.140 232.620 210.140 H 238.620 C 238.708 210.140 238.780 210.068 238.780 209.980 V 207.140 C 238.780 206.980 238.620 207.140 238.780 207.140 H 244.460 C 244.620 207.140 244.460 206.980 244.460 207.140 V 209.980 C 244.460 210.068 244.532 210.140 244.620 210.140 H 250.620 C 250.708 210.140 250.780 210.068 250.780 209.980 V 207.140 C 250.780 206.980 250.620 207.140 250.780 207.140 H 256.460 C 256.620 207.140 256.460 206.980 256.460 207.140 V 209.980 C 256.460 210.068 256.532 210.140 256.620 210.140 H 263.620 C 263.708 210.140 263.780 210.068 263.780 209.980 V 199.140 C 263.780 198.980 263.620 199.140 263.780 199.140 H 266.620 C 266.708 199.140 266.780 199.068 266.780 198.980 V 192.980 C 266.780 192.892 266.708 192.820 266.620 192.820 H 263.780 C 263.620 192.820 263.780 192.980 263.780 192.820 V 187.140 C 263.780 186.980 263.620 187.140 263.780 187.140 H 266.620 C 266.708 187.140 266.780 187.068 266.780 186.980 V 180.980 C 266.780 180.892 266.708 180.820 266.620 180.820 H 263.780 C 263.620 180.820 263.780 180.980 263.780 180.820 V 175.140 C 263.780 174.980 263.620 175.140 263.780 175.140 H 266.620 C 266.708 175.140 266.780 175.068 266.780 174.980 V 168.980 C 266.780 168.892 266.708 168.820 266.620 168.820 H 263.780 C 263.620 168.820 263.780 168.980 263.780 168.820 V 163.140 C 263.780 162.980 263.620 163.140 263.780 163.140 H 266.620 C 266.708 163.140 266.780 163.068 266.780 162.980 V 156.980 C 266.780 156.892 266.708 156.820 266.620 156.820 H 263.780 C 263.620 156.820 263.780 156.980 263.780 156.820 V 151.140 C 263.780 150.980 263.620 151.140 263.780 151.140 H 266.620 C 266.708 151.140 266.780 151.068 266.780 150.980 V 144.980 C 266.780 144.892 266.708 144.820 266.620 144.820 H 263.780 C 263.620 144.820 263.780 144.980 263.780 144.820 V 139.140 C 263.780 138.980 263.620 139.140 263.780 139.140 H 266.620 C 266.708 139.140 266.780 139.068 266.780 138.980 V 132.980 C 266.780 132.892 266.708 132.820 266.620 132.820 H 263.780 C 263.620 132.820 263.780 132.980 263.780 132.820 V 127.140 C 263.780 126.980 263.620 127.140 263.780 127.140 H 266.620 C 266.708 127.140 266.780 127.068 266.780 126.980 V 120.980 C 266.780 120.892 266.708 120.820 266.620 120.820 H 263.780 C 263.620 120.820 263.780 120.980 263.780 120.820 V 109.980 C 263.780 109.892 263.708 109.820 263.620 109.820 H 171.620 C 171.532 109.820 171.460 109.892 171.460 109.980 V 120.820 C 171.460 120.980 171.620 120.820 171.460 120.820 H 168.620 C 168.532 120.820 168.460 120.892 168.460 120.980 V 126.980 C 168.460 127.068 168.532 127.140 168.620 127.140 H 171.460 C 171.620 127.140 171.460 126.980 171.460 127.140 V 132.820 C 171.460 132.980 171.620 132.820 171.460 132.820 H 168.620 C 168.532 132.820 168.460 132.892 168.460 132.980 V 138.980 C 168.460 139.068 168.532 139.140 168.620 139.140 H 171.460 C 171.620 139.140 171.460 138.980 171.460 139.140 V 144.820 C 171.460 144.980 171.620 144.820 171.460 144.820 H 168.620 C 168.532 144.820 168.460 144.892 168.460 144.980 V 150.980 C 168.460 151.068 168.532 151.140 168.620 151.140 H 171.460 C 171.620 151.140 171.460 150.980 171.460 151.140 V 156.820 C 171.460 156.980 171.620 156.820 171.460 156.820 H 168.620 C 168.532 156.820 168.460 156.892 168.460 156.980 V 162.980 C 168.460 163.068 168.532 163.140 168.620 163.140 H 171.460 C 171.620 163.140 171.460 162.980 171.460 163.140 V 168.820 C 171.460 168.980 171.620 168.820 171.460 168.820 H 168.620 C 168.532 168.820 168.460 168.892 168.460 168.980 V 174.980 C 168.460 175.068 168.532 175.140 168.620 175.140 H 171.460 C 171.620 175.140 171.460 174.980 171.460 175.140 V 180.820 C 171.460 180.980 171.620 180.820 171.460 180.820 H 168.620 C 168.532 180.820 168.460 180.892 168.460 180.980 V 186.980 C 168.460 187.068 168.532 187.140 168.620 187.140 H 171.460 C 171.620 187.140 171.460 186.980 171.460 187.140 V 192.820 C 171.460 192.980 171.620 192.820 171.460 192.820 H 168.620 C 168.532 192.820 168.460 192.892 168.460 192.980 V 198.980 C 168.460 199.068 168.532 199.140 168.620 199.140 H 171.460 C 171.620 199.140 171.460 198.980 171.460 199.140 V 209.980 C 171.460 210.068 171.532 210.140 171.620 210.140 Z"
       stroke="rgb(0,0,0)"
       stroke-width="0.32"
       id="path6"
       style="stroke-width:0.02;stroke-dasharray:none" />
  </g>
  <path
     id="rect1"
     style="stroke-width:0.02;stroke-dasharray:none"
     d="m 206.50841,186.80183 h 22.32 v 14.32 h -22.32 z" />
</svg>
